<!--?xml version="1.0" encoding="utf-8"?-->
<!-- Generator: Adobe Illustrator 18.1.1, SVG Export Plug-In . SVG Version: 6.00 Build 0)  -->

<svg version="1.1" id="_x32_" xmlns="http://www.w3.org/2000/svg" xmlns:xlink="http://www.w3.org/1999/xlink" x="0px" y="0px" viewBox="0 0 512 512" style="width: 256px; height: 256px; opacity: 1;" xml:space="preserve">
<style type="text/css">
	.st0{fill:#4B4B4B;}
</style>
<g>
	<path class="st0" d="M0,0.004v511.992h512v-25.212V0.004H0z M41.935,41.951h235.977c0.252,3.089,0.569,6.16,0.822,9.266
		c0.26,5.332,0.385,10.574,0.385,15.832c0,12.191-0.687,24.236-1.918,36.168l-2.024,19.263l18.657-5.283l5.202-0.748
		c10.07,0.025,18.242,8.193,18.266,18.264c-0.024,10.103-8.196,18.279-18.266,18.311c-3.974,0-7.514-1.243-10.591-3.422
		l-16.064-11.427l-4.336,19.23c-6.604,29.187-15.532,58.414-24.579,88.283c-24.626-7.966-49.72-14.622-75.095-19.978
		c0.435-2.52,1.093-4.926,1.093-7.534c-0.016-24.61-19.933-44.54-44.53-44.54c-22.77,0.041-41.293,17.142-43.987,39.208
		c-12.996-1.049-26.016-1.414-39.012-1.74V41.951z M41.935,470.05V237.12c17.202,0.35,34.372,1.211,51.546,2.99l19.579,2.041
		l-5.665-18.848l-0.743-5.128c0.028-10.078,8.2-18.255,18.283-18.279c10.094,0.024,18.267,8.201,18.295,18.279
		c0,3.674-1.081,7.038-2.95,9.94l-10.688,16.402l19.246,3.634c29.524,5.591,58.645,13.443,87.222,22.659
		c-7.278,24.48-14.17,49.562-19.742,75.677c-2.917-0.594-5.758-1.439-8.835-1.439c-24.578,0-44.523,19.897-44.523,44.516
		c0,24.504,19.79,44.32,44.238,44.523c-0.15,5.388-0.454,10.753-0.454,16.117c0,6.632,0.251,13.28,0.589,19.848H41.935z
		 M470.065,470.05H233.93c-0.334-6.6-0.947-13.183-0.947-19.848c0-10.452,0.285-20.928,0.874-31.478l1.202-21.847l-19.844,9.201
		c-2.43,1.162-4.999,1.779-7.734,1.779c-10.07-0.032-18.251-8.208-18.271-18.295c0.02-10.103,8.201-18.279,18.271-18.279
		c4.101,0,7.794,1.332,10.891,3.633l17.507,12.956l3.28-21.531c0.357-2.389,0.642-4.535,0.979-6.599
		c5.511-27.675,13.041-54.39,20.909-80.878c24.269,7.291,48.745,12.566,73.282,16.661l-0.874,6.096
		c0,24.643,19.941,44.531,44.544,44.531c23.838,0,43.137-18.758,44.287-42.345c2.918,0.032,5.848,0.162,8.746,0.162
		c13.073,0,26.061-0.683,39.032-1.602V470.05z M470.065,276.075c-12.996,0.975-25.988,1.65-39.032,1.65
		c-7.738,0-15.488-0.138-23.196-0.48l-20.019-0.846l7.197,18.718l1.264,6.502c-0.032,10.119-8.201,18.279-18.279,18.295
		c-10.119-0.016-18.279-8.176-18.299-18.295c0-3.496,1-6.722,2.694-9.51l10.586-17.125l-19.917-2.747
		c-28.378-3.974-56.617-10.135-84.604-18.571c7.66-25.172,15.024-50.367,21.347-75.888c3.024,0.65,6.026,1.463,9.229,1.463
		c24.578-0.017,44.519-19.921,44.519-44.531c-0.032-22.864-17.3-41.435-39.443-43.995c0.508-7.868,1.248-15.622,1.248-23.668
		c0-5.73-0.122-11.533-0.431-17.32V49.51l-0.024-0.203c-0.203-2.462-0.464-4.918-0.666-7.356h165.828V276.075z" style="fill: rgb(255, 120, 59);"></path>
</g>
</svg>
