<!--?xml version="1.0" encoding="utf-8"?-->
<!-- Generator: Adobe Illustrator 15.1.0, SVG Export Plug-In . SVG Version: 6.00 Build 0)  -->

<svg version="1.1" id="_x32_" xmlns="http://www.w3.org/2000/svg" xmlns:xlink="http://www.w3.org/1999/xlink" x="0px" y="0px" width="512px" height="512px" viewBox="0 0 512 512" style="width: 128px; height: 128px; opacity: 1;" xml:space="preserve">
<style type="text/css">

	.st0{fill:#4B4B4B;}

</style>
<g>
	<path class="st0" d="M256.016,0C114.625,0,0,114.625,0,256s114.625,256,256.016,256C397.375,512,512,397.375,512,256
		S397.375,0,256.016,0z M256.016,450.031c-106.984,0-194.047-87.063-194.047-194.031c0-37.766,11.031-72.953,29.797-102.781H420.25
		C439,183.047,450,218.234,450,256C450,362.969,362.969,450.031,256.016,450.031z"></path>
	<rect x="186.063" y="342.594" class="st0" width="139.875" height="32.313"></rect>
	<polygon class="st0" points="219.422,272.344 195.813,248.719 219.422,225.109 196.844,202.5 173.219,226.125 149.594,202.5 
		127,225.094 150.625,248.719 127,272.344 149.594,294.938 173.219,271.313 196.844,294.938 	"></polygon>
	<polygon class="st0" points="362.406,202.5 338.781,226.125 315.156,202.5 292.563,225.094 316.188,248.719 292.563,272.344 
		315.156,294.938 338.781,271.313 362.406,294.938 385,272.344 361.375,248.719 385,225.109 	"></polygon>
</g>
</svg>
